<svg version="1.1" xmlns="http://www.w3.org/2000/svg" xmlns:xlink="http://www.w3.org/1999/xlink" width="247.22798" height="169.26988" viewBox="0,0,247.22798,169.26988"><g transform="translate(-125.04888,-119.505)"><g data-paper-data="{&quot;isPaintingLayer&quot;:true}" fill-rule="nonzero" stroke-miterlimit="10" stroke-dasharray="" stroke-dashoffset="0" style="mix-blend-mode: normal"><path d="M239.816,225.751c0,-1.276 0.358,-3.109 2.338,-3.523c2.857,-0.599 6.126,2.293 7.014,3.146c-0.065,0.338 1.047,7.173 1.047,7.765c0,2.004 -0.535,2.083 -0.743,2.116c-1.956,0.284 -7.169,-5.197 -9.562,-8.387c-0.034,-0.175 -0.094,-0.559 -0.094,-1.117z" fill="#ffc93e" stroke="#603813" stroke-width="3" stroke-linecap="butt" stroke-linejoin="miter"/><path d="M231.894,235.327c-1.418,-1.538 -1.621,-5.707 -1.621,-7.482c0,-0.752 0.039,-1.253 0.041,-1.268l0.002,-0.039c0,0 -0.004,-0.16 -0.004,-0.219c0,-3.341 3.075,-4.501 3.597,-4.675c1.781,0.021 4.858,0.864 5.593,2.136c0.075,0.128 0.144,0.289 0.144,0.495c0,0.181 -0.054,0.4 -0.208,0.666c-0.071,0.121 -1.335,3.109 -2.405,5.4l-0.765,2.119c-0.572,1.851 -1.473,3.703 -2.452,3.703c-0.774,0.003 -1.402,-0.271 -1.922,-0.836z" fill="#ffc93e" stroke="#603813" stroke-width="4" stroke-linecap="butt" stroke-linejoin="miter"/><path d="M282.69266,201.23081v0c6.78569,0.97878 9.45771,1.99806 9.41167,5.13729c-0.01882,1.22861 -0.63751,2.31195 -1.78251,3.13254c-2.8061,2.00605 -9.54487,2.96602 -15.34102,1.08636c-3.95786,-1.28295 -13.38833,-8.91245 -13.79254,-11.48067c-0.03548,-0.21359 0.00862,-0.55127 0.09363,-0.6142c0.24755,-0.4132 0.854,-0.75515 1.60112,-0.82233c2.07221,-0.18973 5.33758,0.39833 8.60675,1.25941c2.53832,0.67106 5.4218,1.43051 8.42822,1.89252l2.77469,0.40909z" data-paper-data="{&quot;index&quot;:null}" fill="#ffc93e" stroke="#603813" stroke-width="3" stroke-linecap="butt" stroke-linejoin="miter"/><path d="M230.597,164.507c0,0 -3.11,-9.629 -6.011,-13.598c-1.72,-2.79 -4.2,-6.267 -7.477,-6.049c-4.067,0.106 -6.283,4.984 -10.299,6.545c-2.602,1.003 -9.461,2.314 -8.406,0c2.813,-5.814 14.04,-9.079 16.844,-16.379c1.263,-3.305 -4.272,-7.252 -7.941,-7.942c-2.745,-0.501 -4.039,4.217 -6.545,5.615c-1.151,0.643 -4.339,1.305 -3.753,0c2.12,-4.363 4.543,-10.027 9.336,-11.694c3.617,-1.254 7.562,2.473 10.299,5.119c8.464,8.185 15.617,17.938 23.24,26.65l4.511,5.139c0,0 3.225,3.956 5.692,6.566c0.044,0.045 2.378,-0.317 3.989,-1.657c1.314,-1.096 1.141,-2.323 1.559,-4.902c0.384,-2.371 0.802,-6.659 2.072,-6.681c1.916,-0.029 3.176,7.868 3.666,10.793l0.272,1.565c0.643,3.479 3.999,13.94 4.144,14.384c0.046,0.108 0.121,0.249 0.121,0.249l0.027,0.056l0.038,0.047c5.185,6.429 9.038,14.223 9.038,21.524c0,15.464 -13.555,26.349 -31.697,26.349c-3.365,0 -6.657,-0.473 -9.783,-1.398l-0.168,-0.049c0,0 -4.908,-0.412 -11.186,7.84c-1.26,1.657 -1.147,3.201 -2.922,2.726c-0.592,-0.158 -1.026,-0.593 -1.382,-1.383c-0.848,-1.884 -0.222,-6.347 0.816,-9.197l0.163,-0.448l-0.375,-0.297c-0.092,-0.073 -10.274,-7.493 -11.303,-18.125c-0.896,-9.268 3.785,-14.545 5.728,-17.444l1.117,-1.858c1.409,-3.428 -1.243,-8.195 -3.583,-12.401c-1.397,-2.511 -3.652,-6.176 -3.143,-7.038c0.565,-0.954 2.585,0.062 4.625,1.034c1.654,0.791 3.245,1.908 4.35,1.171c1.149,-0.765 0.396,-2.686 -0.649,-5.346c-0.982,-2.498 -2.841,-6.443 -2.127,-8.072c0.197,-0.447 0.542,-0.762 1.055,-0.961c1.897,-0.734 4.609,2.461 6.805,4.961c2.678,3.048 5.716,6.506 9.243,4.586z" fill="#ffc93e" stroke="#603813" stroke-width="3" stroke-linecap="round" stroke-linejoin="round"/><path d="M233.728,200.989v0c0,-2.791 2.262,-5.053 5.054,-5.056c2.79,0 5.051,2.265 5.051,5.056c0,2.789 -2.26,5.05 -5.051,5.05c-2.791,0 -5.054,-2.261 -5.054,-5.05z" fill="#ffffff" stroke="none" stroke-width="1" stroke-linecap="butt" stroke-linejoin="miter"/><path d="M239.461,197.496c0.981,0 1.87,0.398 2.513,1.043c0.645,0.643 1.042,1.532 1.042,2.513c0,0.981 -0.397,1.87 -1.042,2.514c-0.644,0.644 -1.532,1.042 -2.513,1.042c-0.981,0 -1.87,-0.398 -2.513,-1.042c-0.645,-0.644 -1.042,-1.532 -1.042,-2.514c0,-0.98 0.398,-1.87 1.042,-2.513c0.644,-0.645 1.532,-1.043 2.513,-1.043z" fill="#603813" stroke="none" stroke-width="1" stroke-linecap="butt" stroke-linejoin="miter"/><path d="M258.068,200.989v0c0,-2.791 2.262,-5.053 5.054,-5.056c2.79,0 5.052,2.265 5.052,5.056c0,2.789 -2.264,5.05 -5.052,5.05c-2.792,0 -5.054,-2.261 -5.054,-5.05z" fill="#ffffff" stroke="none" stroke-width="1" stroke-linecap="butt" stroke-linejoin="miter"/><path d="M260.445,201.052v0c0,-1.963 1.59,-3.556 3.556,-3.556c1.963,0 3.556,1.594 3.556,3.556c0,1.965 -1.593,3.555 -3.556,3.555c-1.966,0 -3.556,-1.591 -3.556,-3.555z" fill="#603813" stroke="none" stroke-width="1" stroke-linecap="butt" stroke-linejoin="miter"/><path d="M198.841,220.494c-1.036,-0.661 -1.633,-1.753 -1.729,-3.161c-0.234,-3.445 2.492,-9.682 7.134,-13.626c3.17,-2.694 14.617,-6.707 17.014,-5.703c0.198,0.083 0.463,0.297 0.472,0.404c0.224,0.427 0.194,1.119 -0.14,1.791c-0.927,1.864 -3.142,4.335 -5.594,6.66c-1.906,1.814 -4.065,3.863 -6.035,6.181l-1.807,2.141c-4.397,5.262 -6.67,7.004 -9.315,5.313z" fill="#ffc93e" stroke="#603813" stroke-width="3" stroke-linecap="butt" stroke-linejoin="miter"/><path d="M247.34113,215.18344c3.22,-2.76 7.819,-2.756 7.819,-2.756" data-paper-data="{&quot;index&quot;:null}" fill="none" stroke="#603813" stroke-width="2" stroke-linecap="round" stroke-linejoin="round"/><path d="M296.34579,194.93208c0,0 -12.30207,21.29602 -13.5632,23.11449c-1.37019,1.97571 -8.64866,-1.6247 -7.93482,-4.65603c0.51314,-2.17905 13.5632,-23.11449 13.5632,-23.11449z" data-paper-data="{&quot;index&quot;:null}" fill="#cacaca" stroke="#616161" stroke-width="3" stroke-linecap="butt" stroke-linejoin="miter"/><path d="M281.3005,182.98768c0,-9.38884 7.61116,-17 17,-17c9.38884,0 17,7.61116 17,17c0,9.38884 -7.61116,17 -17,17c-9.38884,0 -17,-7.61116 -17,-17z" fill="#a2e5fb" stroke="#335a61" stroke-width="3" stroke-linecap="butt" stroke-linejoin="miter"/><path d="M290.12463,204.641c2.69052,0.84374 3.80599,2.00589 3.77984,4.3271c-0.01446,1.22861 -0.48974,2.31194 -1.36934,3.13253c-0.77787,0.72388 -1.94913,1.31155 -3.33779,1.67873c-1.47429,0.38983 -8.10388,-2.22291 -7.12578,-6.45427c1.51435,-6.55129 7.67323,-2.80322 8.05308,-2.6841z" data-paper-data="{&quot;index&quot;:null}" fill="#ffc93e" stroke="#603813" stroke-width="3" stroke-linecap="butt" stroke-linejoin="miter"/><path d="M301.5005,171.78768c0,0 3.22068,1.06023 5.69081,3.89514c1.68778,1.93702 2.70919,4.90486 2.70919,4.90486" fill="none" stroke="#c1ecfa" stroke-width="3" stroke-linecap="round" stroke-linejoin="miter"/><text transform="translate(162.5,261.71666) scale(0.5,0.5)" font-size="40" xml:space="preserve" fill="#603813" fill-rule="nonzero" stroke="none" stroke-width="1" stroke-linecap="butt" stroke-linejoin="miter" stroke-miterlimit="10" stroke-dasharray="" stroke-dashoffset="0" font-family="Sans Serif" font-weight="normal" text-anchor="start" style="mix-blend-mode: normal"><tspan x="0" dy="0">Even Alonzo tried</tspan></text><text transform="translate(125.5,285.01556) scale(0.30075,0.30075)" font-size="40" xml:space="preserve" fill="#603813" fill-rule="nonzero" stroke="none" stroke-width="1" stroke-linecap="butt" stroke-linejoin="miter" stroke-miterlimit="10" stroke-dasharray="" stroke-dashoffset="0" font-family="Sans Serif" font-weight="normal" text-anchor="start" style="mix-blend-mode: normal"><tspan x="0" dy="0">we still can't find the page your looking for</tspan></text></g></g></svg>